<?xml version="1.0" encoding="utf-8"?>
<!-- Generator: Adobe Illustrator 22.0.1, SVG Export Plug-In . SVG Version: 6.00 Build 0)  -->
<svg version="1.1" id="Layer_1" xmlns="http://www.w3.org/2000/svg" xmlns:xlink="http://www.w3.org/1999/xlink" x="0px" y="0px"
	 viewBox="0 0 114.7 23.3" style="enable-background:new 0 0 114.7 23.3;" xml:space="preserve">
<style type="text/css">
	.st0{clip-path:url(#SVGID_2_);fill:#231F20;}
</style>
<g>
	<defs>
		<rect id="SVGID_1_" x="0.7" y="1" width="113.3" height="21.7"/>
	</defs>
	<clipPath id="SVGID_2_">
		<use xlink:href="#SVGID_1_"  style="overflow:visible;"/>
	</clipPath>
	<path class="st0" d="M106.8,2.6h-1.6l-0.1,4.8h-3.6v1.4h3.6c-0.2,9.1-0.2,9.2-0.2,9.2c0,3.3,1.5,4.6,4.3,4.6c1.8,0,3.4-0.8,4.7-2.2
		l-1.1-1.1c-0.9,1.1-2.3,1.8-3.4,1.8c-1.8,0-2.9-1-2.9-3c0,0,0-0.1,0.2-9.2h6.1V7.4h-6.1L106.8,2.6z M89.5,13.6
		c0.3-3.1,1.8-5.1,3.9-5.1c2.3,0,3.6,1.8,3.8,5.1H89.5z M89.5,15H99v-0.3c0-5-2-7.5-5.5-7.5c-3.3,0-5.8,2.8-5.8,7.7
		c0,4.7,2.2,7.7,6.2,7.7c1.7,0,3.2-0.5,4.8-1.3l-0.6-1.4c-1.3,0.8-2.7,1.3-3.9,1.3C91,21.1,89.6,18.5,89.5,15 M78.6,22.4h1.6l5.3-15
		h-1.7l-3.2,9.2c-0.8,2.3-1,2.7-1.2,3.9h0c-0.2-1.2-0.4-1.6-1.1-3.8l-3.2-9.3h-1.8L78.6,22.4z M66.5,22.4h1.7V1h-6v1.4h4.4V22.4z
		 M51,13.6c0.3-3.1,1.8-5.1,3.9-5.1c2.3,0,3.6,1.8,3.8,5.1H51z M51,15h9.6v-0.3c0-5-2-7.5-5.5-7.5c-3.3,0-5.8,2.8-5.8,7.7
		c0,4.7,2.2,7.7,6.2,7.7c1.7,0,3.2-0.5,4.8-1.3l-0.6-1.4c-1.3,0.8-2.7,1.3-3.9,1.3C52.6,21.1,51.1,18.5,51,15 M40.2,22.4h1.6l5.3-15
		h-1.7l-3.2,9.2c-0.8,2.3-1,2.7-1.2,3.9h0c-0.2-1.2-0.4-1.6-1.1-3.8l-3.2-9.3h-1.8L40.2,22.4z M19.7,2.6h-1.6L18,7.4h-3.6v1.4h3.6
		c-0.2,9.1-0.2,9.2-0.2,9.2c0,3.3,1.5,4.6,4.3,4.6c1.8,0,3.4-0.8,4.7-2.2l-1.1-1.1c-0.9,1.1-2.3,1.8-3.4,1.8c-1.8,0-2.9-1-2.9-3
		c0,0,0-0.1,0.2-9.2h6.1V7.4h-6.1L19.7,2.6z M6.1,14.4c0.7,0,1.4,0,2.4,0.4l0.9,0.3v1.4c0,2.2-1.6,4.6-3.9,4.6c-1.9,0-3-1.2-3-3.2
		C2.4,15.7,4,14.4,6.1,14.4 M6.1,7.2c-1.6,0-3,0.5-4.1,1l0.5,1.4c1.1-0.6,2.1-1,3.4-1c2.6,0,3.5,1.3,3.5,3.7v1.5l-1-0.3
		c-0.8-0.2-1.7-0.4-2.5-0.4c-2.9,0-5.1,1.7-5.1,4.9c0,2.9,1.6,4.6,4.5,4.6c2.1,0,3.5-1.3,4.4-2.8l0,0c0.1,0.7,0.2,1.8,0.4,2.5h1.6
		c-0.4-1.6-0.6-3.3-0.6-4.9v-5.8C11,8.7,9.1,7.2,6.1,7.2"/>
</g>
</svg>
