<?xml version="1.0" encoding="utf-8"?>
<!-- Generator: Adobe Illustrator 22.0.1, SVG Export Plug-In . SVG Version: 6.00 Build 0)  -->
<svg version="1.1" id="Layer_1" xmlns="http://www.w3.org/2000/svg" xmlns:xlink="http://www.w3.org/1999/xlink" x="0px" y="0px"
	 viewBox="0 0 55.3 29.3" style="enable-background:new 0 0 55.3 29.3;" xml:space="preserve">
<style type="text/css">
	.st0{clip-path:url(#SVGID_2_);fill:#231F20;}
</style>
<g>
	<defs>
		<rect id="SVGID_1_" x="0.8" y="0.8" width="53.8" height="27.5"/>
	</defs>
	<clipPath id="SVGID_2_">
		<use xlink:href="#SVGID_1_"  style="overflow:visible;"/>
	</clipPath>
	<path class="st0" d="M52.9,14.8c0,4-1.3,6.3-3.9,6.3c-1.6,0-2.6-0.6-3.5-1.7v-8.6c0.7-1.4,2.1-2.3,3.6-2.3
		C51.5,8.5,52.9,10.8,52.9,14.8 M54.7,14.8c0-5.4-2.1-7.7-5.3-7.7c-1.5,0-3,0.7-4.1,2l0,0c-0.1-0.6-0.2-1.1-0.3-1.7h-1.6
		c0.4,1.6,0.6,3.3,0.6,4.9v16.1h1.7v-2.9c0-1.5,0-2.9-0.2-4.3l0,0c0.9,0.8,2.1,1.3,3.7,1.3C52.4,22.5,54.7,19.8,54.7,14.8
		 M38.3,14.8c0,4-1.4,6.3-4.1,6.3c-2.6,0-4.1-2.3-4.1-6.3c0-4,1.5-6.3,4.1-6.3S38.3,10.8,38.3,14.8 M28.3,14.8
		c0,5.2,2.2,7.7,5.8,7.7c3.4,0,5.8-2.7,5.8-7.7c0-5.2-2.2-7.7-5.8-7.7C30.8,7.1,28.3,9.8,28.3,14.8 M14.6,0.8v21.4h1.6v-7.3
		c0-3.4,1.6-6.4,4.1-6.4c1.6,0,2.6,0.8,2.6,4v9.8h1.7V11.9c0-2.7-0.9-4.8-4-4.8c-2.2,0-3.8,1.3-4.6,3.4l0,0c0.2-1.4,0.2-2.8,0.2-4.3
		V0.8H14.6z M8.9,18.6c0,1.5-1.4,2.5-3.1,2.5c-1.4,0-2.7-0.5-4-1.5L0.8,21c1.4,1,3,1.5,5,1.5c2.8,0,4.8-1.7,4.8-4.2
		c0-5.3-7.6-3.7-7.6-7.5c0-1.3,1.2-2.4,3-2.4c1.1,0,2.5,0.4,3.4,1.2l0.8-1.3C9.3,7.6,7.9,7,5.9,7c-2.7,0-4.6,1.6-4.6,3.9
		C1.3,16.1,8.9,14.3,8.9,18.6"/>
</g>
</svg>
